<?xml version="1.0" encoding="utf-8"?>
<svg version="1.1" id="Layer_1" x="0px" y="0px" width="612px" height="612px" viewBox="109.00900268554688 157.05299377441406 430 430" enable-background="new 0 0 612 792" xmlns="http://www.w3.org/2000/svg">
  <g transform="matrix(1, 0, 0, 1, 16.024519, 0.736011)">
    <g>
      <path fill="#FFFFFF" d="M373.102,257.143c-3.59-1.961-7.836-3.102-12.73-3.43c-4.895-0.324-10.117-0.406-15.668-0.242&#10;&#9;&#9;c-5.547,0.164-11.422,0.488-17.625,0.976c-6.203,0.493-12.402,0.735-18.602,0.735c-6.203,0-12.406-0.242-18.605-0.735&#10;&#9;&#9;c-6.203-0.488-12.078-0.812-17.625-0.976c-5.55-0.164-10.773-0.082-15.668,0.242c-4.898,0.328-9.14,1.469-12.73,3.43&#10;&#9;&#9;c-7.508,3.918-12.895,8.894-16.155,14.933c-3.267,6.036-4.896,14.278-4.896,24.723c0,19.91,10.281,33.457,30.844,40.637&#10;&#9;&#9;c3.591,0.98,7.509,1.957,11.75,2.938c3.591,0.653,8.078,1.305,13.466,1.957c5.382,0.652,11.667,0.98,18.847,0.98h21.543&#10;&#9;&#9;c6.855,0,13.055-0.323,18.605-0.98c5.551-0.652,10.281-1.304,14.199-1.957c4.566-0.977,8.484-1.957,11.746-2.938&#10;&#9;&#9;c20.566-7.184,30.848-20.727,30.848-40.637c0-10.445-1.715-18.687-5.141-24.723C386.074,266.037,380.609,261.061,373.102,257.143z"/>
      <path d="M417.164,235.842c-3.59-8.977-8.648-16.73-15.176-23.258c1.957-7.508,2.527-15.34,1.711-23.5s-2.527-15.504-5.141-22.031&#10;&#9;&#9;c-12.074,0.652-22.195,3.101-30.355,7.344c-8.16,4.242-14.035,7.832-17.625,10.769c-13.055-3.262-26.602-4.894-40.637-4.894h-3.426&#10;&#9;&#9;c-15.016,0-29.539,1.957-43.573,5.875c-3.267-2.938-9.06-6.692-17.384-11.262c-8.32-4.57-18.684-7.18-31.09-7.832&#10;&#9;&#9;c-2.608,6.855-4.323,14.605-5.141,23.254c-0.816,8.652,0.082,16.894,2.696,24.726c-5.875,6.528-10.446,14.036-13.711,22.52&#10;&#9;&#9;c-3.263,8.488-4.896,18.117-4.896,28.887c0,10.445,1.223,20.402,3.672,29.867s7.017,17.871,13.707,25.215&#10;&#9;&#9;c0.228,0.25,0.479,0.485,0.712,0.732c6.62,7.009,15.426,12.812,26.463,17.385c9.346,3.87,20.879,6.594,34.596,8.172&#10;&#9;&#9;c5.045-0.997,10.161-1.671,15.18-2.282c9.036-1.1,18.181-0.791,27.238-0.115c10.486,0.782,21.161,2.333,31.809,2.996&#10;&#9;&#9;c13.419-1.581,24.722-4.419,33.893-8.524c6.875-3.078,12.81-6.673,17.813-10.781c2.957-2.429,5.59-5.035,7.895-7.824&#10;&#9;&#9;c6.199-7.508,10.445-15.914,12.727-25.214c2.285-9.301,3.43-19.176,3.43-29.621C422.551,255.022,420.754,244.819,417.164,235.842z&#10;&#9;&#9; M363.797,337.436c-3.262,0.98-7.18,1.961-11.746,2.938c-3.918,0.653-8.648,1.305-14.199,1.957&#10;&#9;&#9;c-5.551,0.657-11.75,0.98-18.605,0.98h-21.543c-7.18,0-13.465-0.328-18.847-0.98c-5.388-0.652-9.875-1.304-13.466-1.957&#10;&#9;&#9;c-4.241-0.98-8.159-1.957-11.75-2.938c-20.563-7.18-30.844-20.727-30.844-40.637c0-10.445,1.629-18.687,4.896-24.723&#10;&#9;&#9;c3.261-6.039,8.647-11.015,16.155-14.933c3.591-1.961,7.832-3.102,12.73-3.43c4.895-0.324,10.118-0.406,15.668-0.242&#10;&#9;&#9;c5.547,0.164,11.422,0.488,17.625,0.976c6.199,0.493,12.402,0.735,18.605,0.735c6.199,0,12.398-0.242,18.602-0.735&#10;&#9;&#9;c6.203-0.488,12.078-0.812,17.625-0.976c5.551-0.164,10.773-0.082,15.668,0.242c4.895,0.328,9.141,1.469,12.73,3.43&#10;&#9;&#9;c7.508,3.918,12.973,8.894,16.402,14.933c3.426,6.036,5.141,14.278,5.141,24.723C394.645,316.709,384.363,330.252,363.797,337.436z&#10;&#9;&#9;"/>
      <path d="M358.414,276.725c-3.594,0-6.531,1.633-8.813,4.898c-2.285,3.262-3.43,7.18-3.43,11.75c0,4.571,1.145,8.484,3.43,11.75&#10;&#9;&#9;c2.285,3.262,5.223,4.895,8.813,4.895s6.609-1.633,9.055-4.895c2.449-3.266,3.672-7.179,3.672-11.75&#10;&#9;&#9;c0-4.57-1.223-8.488-3.672-11.75C365.023,278.358,362.004,276.725,358.414,276.725z"/>
      <path d="M262.449,276.725c-3.589,0-6.527,1.633-8.813,4.898c-2.285,3.262-3.426,7.18-3.426,11.75c0,4.571,1.141,8.484,3.426,11.75&#10;&#9;&#9;c2.285,3.262,5.224,4.895,8.813,4.895c3.594,0,6.614-1.633,9.059-4.895c2.449-3.266,3.672-7.179,3.672-11.75&#10;&#9;&#9;c0-4.57-1.223-8.488-3.672-11.75C269.063,278.358,266.043,276.725,262.449,276.725z"/>
    </g>
    <path fill="#F9B54C" d="M 461.346 575.581 L 154.502 575.581 C 151.73 575.581 149.44 573.487 149.44 570.954 L 149.44 312.359 L 466.529 312.359 L 466.529 570.954 C 466.529 573.487 464.238 575.581 461.346 575.581 Z"/>
    <polygon fill="#FFD05B" points="496.96 403.11 466.589 312.359 149.38 312.359 119.009 403.11"/>
    <g>
      <polygon fill="#FFFFFF" points="264.222,468.757 264.222,523.333 282.349,523.333 282.349,468.757 301.26,468.757 273.188,435.313 &#10;&#9;&#9;245.312,468.757 &#9;"/>
      <polygon fill="#FFFFFF" points="333.619,468.757 333.619,523.333 351.749,523.333 351.749,468.757 370.656,468.757 &#10;&#9;&#9;342.586,435.313 314.71,468.757 &#9;"/>
      <rect x="245.117" y="531.39" fill="#FFFFFF" width="125.735" height="8.059"/>
    </g>
  </g>
</svg>